<svg width="30" height="30" viewBox="0 0 30 30" fill="none" xmlns="http://www.w3.org/2000/svg">
<path d="M14.0625 22.8125H11.25C9.875 22.8125 8.75 23.9375 8.75 25.3125V25.625H7.5C6.9875 25.625 6.5625 26.05 6.5625 26.5625C6.5625 27.075 6.9875 27.5 7.5 27.5H22.5C23.0125 27.5 23.4375 27.075 23.4375 26.5625C23.4375 26.05 23.0125 25.625 22.5 25.625H21.25V25.3125C21.25 23.9375 20.125 22.8125 18.75 22.8125H15.9375V19.95C15.625 19.9875 15.3125 20 15 20C14.6875 20 14.375 19.9875 14.0625 19.95V22.8125Z" fill="white"/>
<path d="M23.1 14.55C23.925 14.2375 24.65 13.725 25.225 13.15C26.3875 11.8625 27.15 10.325 27.15 8.525C27.15 6.725 25.7375 5.3125 23.9375 5.3125H23.2375C22.8284 4.4701 22.1908 3.75969 21.3973 3.26237C20.6038 2.76506 19.6864 2.50088 18.75 2.5H11.25C9.27498 2.5 7.57498 3.65 6.76248 5.3125H6.06248C4.26248 5.3125 2.84998 6.725 2.84998 8.525C2.84998 10.325 3.61248 11.8625 4.77498 13.15C5.34998 13.725 6.07498 14.2375 6.89998 14.55C7.55295 16.1624 8.67303 17.5428 10.1164 18.514C11.5597 19.4851 13.2604 20.0026 15 20C18.675 20 21.8 17.75 23.1 14.55ZM18.55 10.5625L17.775 11.5125C17.65 11.65 17.5625 11.925 17.575 12.1125L17.65 13.3375C17.7 14.0875 17.1625 14.475 16.4625 14.2L15.325 13.75C15.1128 13.6875 14.8871 13.6875 14.675 13.75L13.5375 14.2C12.8375 14.475 12.3 14.0875 12.35 13.3375L12.425 12.1125C12.4297 11.8954 12.359 11.6833 12.225 11.5125L11.45 10.5625C10.9625 9.9875 11.175 9.35 11.9 9.1625L13.0875 8.8625C13.275 8.8125 13.5 8.6375 13.6 8.475L14.2625 7.45C14.675 6.8125 15.325 6.8125 15.7375 7.45L16.4 8.475C16.5 8.6375 16.725 8.8125 16.9125 8.8625L18.1 9.1625C18.825 9.35 19.0375 9.9875 18.55 10.5625Z" fill="white"/>
</svg>
