<svg width="30" height="30" viewBox="0 0 30 30" fill="none" xmlns="http://www.w3.org/2000/svg">
<path d="M26.0375 10.0125L17.85 3.46252C16.25 2.18752 13.75 2.17502 12.1625 3.45002L3.97495 10.0125C2.79995 10.95 2.08745 12.825 2.33745 14.3L3.91245 23.725C4.27495 25.8375 6.23745 27.5 8.37495 27.5H21.625C23.7375 27.5 25.7375 25.8 26.1 23.7125L27.675 14.2875C27.9 12.825 27.1875 10.95 26.0375 10.0125ZM15.9375 22.5C15.9375 23.0125 15.5125 23.4375 15 23.4375C14.4875 23.4375 14.0625 23.0125 14.0625 22.5V18.75C14.0625 18.2375 14.4875 17.8125 15 17.8125C15.5125 17.8125 15.9375 18.2375 15.9375 18.75V22.5Z" fill="#3BD3DE"/>
</svg>
