<svg width="30" height="30" viewBox="0 0 30 30" fill="none" xmlns="http://www.w3.org/2000/svg">
<path d="M15 2.5C11.725 2.5 9.06245 5.1625 9.06245 8.4375C9.06245 11.65 11.575 14.25 14.85 14.3625C14.95 14.35 15.05 14.35 15.125 14.3625H15.2125C16.7491 14.3112 18.2057 13.6643 19.2741 12.5586C20.3425 11.4529 20.939 9.97505 20.9375 8.4375C20.9375 5.1625 18.275 2.5 15 2.5ZM21.35 17.6863C17.8625 15.3612 12.175 15.3612 8.66245 17.6863C7.07495 18.7488 6.19995 20.1862 6.19995 21.7237C6.19995 23.2612 7.07495 24.6863 8.64995 25.7363C10.4 26.9113 12.7 27.4988 15 27.4988C17.3 27.4988 19.6 26.9113 21.35 25.7363C22.925 24.6737 23.8 23.2487 23.8 21.6987C23.7875 20.1612 22.925 18.7362 21.35 17.6863Z" fill="white"/>
</svg>
