<svg width="30" height="30" viewBox="0 0 30 30" fill="none" xmlns="http://www.w3.org/2000/svg">
<path d="M28.9158 24.8977L26.4402 25.4873C25.8851 25.6234 25.45 26.0466 25.33 26.606L24.8048 28.8282C24.5198 30.0375 22.9894 30.4155 22.1942 29.4631L17.7081 24.2628C17.6246 24.166 17.567 24.0493 17.5407 23.9238C17.5144 23.7983 17.5203 23.6681 17.5578 23.5455C17.5954 23.423 17.6633 23.3121 17.7553 23.2233C17.8472 23.1346 17.9601 23.0709 18.0832 23.0384C20.7465 22.386 23.13 20.8857 24.8798 18.7602C25.1649 18.4125 25.675 18.3672 25.9901 18.6846L29.3209 22.0406C30.4612 23.1895 30.0561 24.6256 28.9158 24.8977ZM1.08419 24.8977L3.55978 25.4873C4.11491 25.6234 4.55002 26.0466 4.67005 26.606L5.19517 28.8282C5.48024 30.0375 7.0106 30.4155 7.80579 29.4631L12.2919 24.2628C12.6519 23.8396 12.4569 23.1744 11.9168 23.0384C9.2535 22.386 6.87002 20.8857 5.12015 18.7602C5.05536 18.6771 4.97395 18.6086 4.88119 18.5592C4.78844 18.5097 4.68641 18.4805 4.58172 18.4734C4.47704 18.4663 4.37203 18.4814 4.27352 18.5178C4.17501 18.5542 4.08519 18.611 4.00989 18.6846L0.679097 22.0406C-0.461174 23.1895 -0.0560778 24.6256 1.08419 24.8977ZM15.0375 0C9.23113 0 4.53501 4.73163 4.53501 10.5819C4.53501 12.7739 5.18017 14.7845 6.29043 16.4624C7.104 17.685 8.16227 18.7227 9.39732 19.5089C10.6324 20.2951 12.0169 20.8125 13.4621 21.0278C13.9723 21.1185 14.4974 21.1638 15.0375 21.1638C15.5776 21.1638 16.1028 21.1185 16.6129 21.0278C19.5986 20.5894 22.1642 18.8812 23.7846 16.4624C24.9364 14.7214 25.5475 12.6743 25.54 10.5819C25.54 4.73163 20.8439 0 15.0375 0ZM19.6286 10.2493L18.3833 11.5041C18.1733 11.7157 18.0532 12.1239 18.1282 12.4262L18.4883 13.9833C18.7734 15.2077 18.1282 15.6915 17.048 15.0414L15.5476 14.1495C15.3953 14.0676 15.2252 14.0248 15.0525 14.0248C14.8798 14.0248 14.7098 14.0676 14.5574 14.1495L13.057 15.0414C11.9768 15.6764 11.3316 15.2077 11.6167 13.9833L11.9768 12.4262C12.0368 12.139 11.9318 11.7157 11.7217 11.5041L10.4464 10.2493C9.71124 9.50861 9.9513 8.76788 10.9715 8.60159L12.5769 8.32948C12.847 8.28413 13.1621 8.04226 13.2821 7.80039L14.1673 6.01658C14.6474 5.04909 15.4276 5.04909 15.9077 6.01658L16.7929 7.80039C16.913 8.04226 17.228 8.28413 17.5131 8.32948L19.1185 8.60159C20.1237 8.76788 20.3638 9.50861 19.6286 10.2493Z" fill="white"/>
</svg>
